<?xml version="1.0" encoding="UTF-8" standalone="no"?>
<!DOCTYPE svg PUBLIC "-//W3C//DTD SVG 1.1//EN" "http://www.w3.org/Graphics/SVG/1.1/DTD/svg11.dtd">
<svg width="100%" height="100%" viewBox="0 0 32 32" version="1.1" xmlns="http://www.w3.org/2000/svg" xmlns:xlink="http://www.w3.org/1999/xlink" xml:space="preserve" xmlns:serif="http://www.serif.com/" style="fill-rule:evenodd;clip-rule:evenodd;stroke-linejoin:round;stroke-miterlimit:2;">
    <g id="path1" transform="matrix(2,0,0,2,0,0)">
        <path d="M1,4L1,12C1,12.549 1.452,13 2,13C2.198,13 2.391,12.942 2.555,12.832L8.555,8.832C8.833,8.647 9.001,8.334 9.001,8C9.001,7.666 8.833,7.353 8.555,7.168L2.555,3.168C2.391,3.058 2.198,3 2,3C1.452,3 1,3.451 1,4Z" style="fill:rgb(224,224,224);fill-rule:nonzero;"/>
    </g>
    <g id="path1-0" transform="matrix(2,0,0,2,0,0)">
        <path d="M15.458,7L13.2,6.435C13.124,6.199 13.03,5.968 12.92,5.746L14.115,3.758L12.7,2.344L10.706,3.539C10.485,3.427 10.256,3.332 10.021,3.254L9.458,1L7.458,1L6.894,3.258C6.744,3.306 6.602,3.373 6.458,3.435L5.984,4.556C5.984,4.556 6.005,4.553 8.054,6C10.555,6 10.53,10 8.054,10C6.083,11.331 6.072,11.352 6.072,11.352L6.458,12.58C6.603,12.644 6.745,12.712 6.896,12.762L7.458,15.014L9.458,15.014L10.023,12.757C10.259,12.681 10.488,12.587 10.71,12.477L12.7,13.671L14.114,12.257L12.919,10.263C13.031,10.042 13.126,9.812 13.204,9.577L15.458,9.016L15.458,7Z" style="fill:rgb(224,224,224);fill-rule:nonzero;"/>
    </g>
</svg>
